<svg xmlns="http://www.w3.org/2000/svg" viewBox="0 0 490 655.27"><defs><style>.cls-1{fill:none;}.cls-2{fill:#7cb8eb;}.cls-3{fill:#cdeef6;}.cls-4{fill:#fff;}.cls-5{fill:#4f83d1;}</style></defs><g id="Layer_2" data-name="Layer 2"><g id="Layer_1-2" data-name="Layer 1"><rect class="cls-1" width="490" height="416"/><g id="Blue"><path class="cls-2" d="M405,471.26a96,96,0,0,0-96-96H292.48a24.06,24.06,0,0,1-15.49,16l-32,16H141l16,119.35,40,40v48.65H181.67a16.41,16.41,0,0,0-15.88,10.79,16.05,16.05,0,0,0,10.05,20.36,15.85,15.85,0,0,0,5.15.85h56l16-80-8-32,47.91,16a32.83,32.83,0,0,0-7.91,32l16,32H277.67a16.41,16.41,0,0,0-15.88,10.79,16.05,16.05,0,0,0,10,20.36,15.85,15.85,0,0,0,5.15.85H405l-16-32,16-16Z"/><path class="cls-3" d="M285,271.26l-48-72H109l-48,72v48l-8,48a22.74,22.74,0,0,0,16,24l32,16H245l32-16a22.73,22.73,0,0,0,16-24l-8-48Z"/><path class="cls-4" d="M149,199.26h32v96H149Z"/><path class="cls-2" d="M237,199.26l32-15.35s32-7.94,40,31.77c8.45,41.93,32,55.58,32,55.58H285Z"/><path class="cls-2" d="M109,199.26,77,183.91S53,176,45,215.68c-8.44,41.93-32,55.58-32,55.58H61Z"/><path class="cls-5" d="M197,607.26h24v16H197Z"/><path class="cls-5" d="M293.83,618.84l-16-32a8.5,8.5,0,0,1-.52-1.38,40.92,40.92,0,0,1,11-40.94,38.27,38.27,0,0,1,39.2-8.8,7.93,7.93,0,0,1,1.05.42l32,16-7.16,14.32-31.45-15.72a22.24,22.24,0,0,0-22.55,5.32,25,25,0,0,0-6.85,24.32l15.65,31.31Z"/><path class="cls-5" d="M221.4,474l15.52-3.92,16,63.37-15.52,3.92Z"/><path class="cls-5" d="M285,607.26h56v16H285Z"/><path class="cls-5" d="M381,487.26H365v-16a56.06,56.06,0,0,0-56-56H293v-16h16a72.08,72.08,0,0,1,72,72Z"/><path class="cls-2" d="M189,327.26H141l-4.12-16.48a11.93,11.93,0,0,1,7.73-15,12.11,12.11,0,0,1,4.39-.54h32a12.5,12.5,0,0,1,12.49,12.51,12.22,12.22,0,0,1-.37,3Z"/><path class="cls-5" d="M93,271.92l0-16a43.59,43.59,0,0,0,33.42-20.44l13.31,8.88A59.53,59.53,0,0,1,93,271.92Z"/><path class="cls-5" d="M109,271.26h16v16H109Z"/><path class="cls-5" d="M245,271.92a59.55,59.55,0,0,1-46.65-27.56l13.31-8.88A43.56,43.56,0,0,0,245,255.92Z"/><path class="cls-5" d="M213,271.26h16v16H213Z"/><path class="cls-5" d="M108.83,385.49l-15.68-3.14a45.87,45.87,0,0,1,20.5-28.49,54.66,54.66,0,0,1,45.87-1.52l-5.05,15.2a39.91,39.91,0,0,0-32.8.19,29.84,29.84,0,0,0-12.84,17.76Z"/><path class="cls-3" d="M405,567.26h16a16,16,0,0,1,0,32H405v-32Z"/><path class="cls-5" d="M309,399.26H293v16h16a56.06,56.06,0,0,1,56,56v16h16v-16A72.08,72.08,0,0,0,309,399.26Z"/><path class="cls-5" d="M139.67,244.36l-13.31-8.88a43.59,43.59,0,0,1-33.42,20.44l0,16A59.53,59.53,0,0,0,139.67,244.36Z"/><path class="cls-5" d="M109,271.26h16v16H109Z"/><path class="cls-5" d="M245,255.92a43.56,43.56,0,0,1-33.34-20.44l-13.31,8.88A59.55,59.55,0,0,0,245,271.92Z"/><path class="cls-5" d="M213,271.26h16v16H213Z"/><path class="cls-5" d="M421,559.26h-8v-88a104.12,104.12,0,0,0-104-104h-8.05c0-.44,0-.86-.06-1.31L293,318.6V279.26h48a8,8,0,0,0,4.08-14.88c-.8-.51-20.7-12.88-28.24-50.28a47.94,47.94,0,0,0-20-32.88,41.43,41.43,0,0,0-29.73-5.08,9.13,9.13,0,0,0-1.54.56l-30.38,14.56H110.81L80.46,176.7c-.31-.14-.63-.27-.95-.38a27.87,27.87,0,0,0-21.88,2.85c-10.1,5.86-17,17.6-20.48,34.93C29.62,251.5,9.79,263.87,9,264.34a8,8,0,0,0,4,14.92H53v36.91L51.3,327.26l-1.11,9.66s-.84,11.1-.84,8.65L48,351.71l-1.52,6.21-1.38,8.37a30.49,30.49,0,0,0,20.74,32.3l31.63,15.87a7.9,7.9,0,0,0,3.57.8h33l15.08,112.41a8,8,0,0,0,2.27,4.59L189,569.92v37.34h-7.32a24.48,24.48,0,0,0-23.48,16.37A24,24,0,0,0,181,655.26h56a8,8,0,0,0,7.84-6.4l16-80a7.81,7.81,0,0,0-.08-3.5l-4.46-17.86,24,8a41,41,0,0,0-2.94,30,8.16,8.16,0,0,0,.52,1.38l10.22,20.39h-10.4a24.47,24.47,0,0,0-23.47,16.37A24,24,0,0,0,277,655.26H405a8,8,0,0,0,7.2-11.57l-13.46-26.83,9.6-9.6H421a24,24,0,0,0,0-48ZM271.53,191.57a25,25,0,0,1,16.86,3.27,33,33,0,0,1,12.8,22.4,108.64,108.64,0,0,0,20,46H289.27l-40.51-60.8ZM157,207.26h16v80H157Zm-11.85,97.49a4.72,4.72,0,0,1,3.85-1.49h32a4.52,4.52,0,0,1,4.5,4.52,4.38,4.38,0,0,1-.14,1.08l-2.6,10.4H147.24l-2.61-10.4A4.74,4.74,0,0,1,145.14,304.75ZM32.79,263.26a108.43,108.43,0,0,0,20-46,35.8,35.8,0,0,1,12.59-24.12,12.74,12.74,0,0,1,8.8-1.7l23,11-40.52,60.8Zm32.95,89.15-1.43-2.58c-.15.9,1-6.33,1-6.33l.5-4.24,42.29,18.48a42,42,0,0,0-4.58,4.47Zm37.14,46.85s-30.81-15.39-31.06-15.48a15,15,0,0,1-10.93-15.2l.8-4.93,33.42,12.49a39.86,39.86,0,0,0-2,6.23l15.68,3.13a29.82,29.82,0,0,1,12.84-17.79,40,40,0,0,1,32.8-.19l5.05-15.2a65.87,65.87,0,0,0-31.75-3.48l-59.29-25.9.4-2.33a8.68,8.68,0,0,0,.11-1.35v-45.6l44.28-66.4H141v81.6a19.47,19.47,0,0,0-8.46,6.08,20.6,20.6,0,0,0-3.42,17.83l4.12,16.47a8,8,0,0,0,7.76,6h48a8,8,0,0,0,7.76-6.06l4.12-16.47A20.27,20.27,0,0,0,189,289V207.26h43.72L277,273.66v45.6a7.37,7.37,0,0,0,.12,1.32l7.94,47.66a15,15,0,0,1-10.88,15.54c-.26.09-31.06,15.48-31.06,15.48ZM397,596l-13.65,13.66a8,8,0,0,0-1.51,9.23l10.22,20.42H277a7.89,7.89,0,0,1-6.46-3.28,8.2,8.2,0,0,1-1.09-7.52,8.51,8.51,0,0,1,8.23-5.2H341v-16H305.94L292.51,580.4a25,25,0,0,1,6.88-24.34,22.23,22.23,0,0,1,22.6-5.38l31.43,15.78,7.15-14.32-32-16a7.93,7.93,0,0,0-1.05-.42,38.07,38.07,0,0,0-36.47,6.54L251.68,529.1,236.75,470l-15.52,3.92,23.56,93.6-14.36,71.78H181a7.89,7.89,0,0,1-6.46-3.28,8.2,8.2,0,0,1-1.09-7.52,8.51,8.51,0,0,1,8.23-5.2H221v-16H205V566.61a8,8,0,0,0-2.34-5.66l-38.09-38.09-14.42-107.6H245a7.82,7.82,0,0,0,3.58-.84l31.62-15.83a32.67,32.67,0,0,0,17.6-15.33H309a88.1,88.1,0,0,1,88,88Zm24-4.69h-8v-16h8a8,8,0,0,1,0,16Z"/></g><path class="cls-3" d="M91.53,384.81s9.82-36.52,45.09-37.08L68.8,322.26,61.47,365Z"/></g></g></svg>