<svg xmlns="http://www.w3.org/2000/svg" viewBox="0 0 490 656.05"><defs><style>.cls-1{fill:#4f83d1;}.cls-2{fill:#cdeef6;}.cls-3{fill:#7cb8eb;}.cls-4{fill:#fff;}.cls-5{fill:none;}</style></defs><g id="Layer_2" data-name="Layer 2"><g id="Layer_1-2" data-name="Layer 1"><g id="Blue"><path class="cls-1" d="M391,535.43l-80-32a8,8,0,0,1-5-7.43V470.25l-25.94-6.49,3.88-15.52,32,8A8,8,0,0,1,322,464v26.58l75,30Z"/><path class="cls-2" d="M98,248h96v80H98Z"/><path class="cls-3" d="M98,248v-8a24,24,0,0,1,24-24h24a16,16,0,0,0,16-16,16,16,0,0,1,16-16h16v64Z"/><path class="cls-1" d="M122,272h16v16H122Z"/><path class="cls-1" d="M154,272h16v16H154Z"/><path class="cls-3" d="M34,520H66v48a16,16,0,0,1-16,16H34V520Z"/><path class="cls-3" d="M186,616h48a16,16,0,0,1,16,16v16H186V616Z"/><path class="cls-4" d="M98,472h96v48H98Z"/><path class="cls-2" d="M143.34,520,186,616h40l-42.66-96Z"/><path class="cls-2" d="M157.55,552l-14.21-32H66v32Z"/><path class="cls-3" d="M98,360h96V472H98Z"/><path class="cls-2" d="M98,360H34L18,424a16,16,0,0,0,32,0l8-32H98Z"/><path class="cls-2" d="M130,360h32v16a16,16,0,0,1-32,0V360Z"/><path class="cls-1" d="M138,496h16v24H138Z"/><path class="cls-3" d="M298,528h96v64H298Z"/><path class="cls-2" d="M298,648c-10.4,0-18.17-5.17-16-16l16-40h32l-16,48C311.94,646.2,304.54,648,298,648Z"/><path class="cls-2" d="M394,648c10.4,0,18.17-5.17,16-16l-16-40H362l16,48C380.06,646.2,387.46,648,394,648Z"/><path class="cls-2" d="M298,560l-37.6-12.54a15.18,15.18,0,0,1,4.82-29.58,14.92,14.92,0,0,1,4.78.78L298,528Z"/><path class="cls-2" d="M394,528l16-32h32l8,24h16a16,16,0,0,1,0,32H394Z"/><path class="cls-3" d="M410,496l-16-16a17,17,0,0,0-24,0h0a17,17,0,0,0,0,24h0l24,24Z"/><path class="cls-2" d="M264.13,459.7,194,400V360l88.59,72a16.64,16.64,0,0,1-18.46,27.7Z"/><path class="cls-1" d="M194,336a8,8,0,0,0,8-8V184a8,8,0,0,0-8-8H178a24,24,0,0,0-24,24,8,8,0,0,1-8,8H122a32,32,0,0,0-32,32v88a8,8,0,0,0,8,8ZM122,224h24a24,24,0,0,0,24-24,8,8,0,0,1,8-8h8v48H106A16,16,0,0,1,122,224Zm-16,32h80v64H106Z"/><path class="cls-1" d="M122,272h16v16H122Z"/><path class="cls-1" d="M154,272h16v16H154Z"/><path class="cls-1" d="M466,512H455.77l-6.18-18.53A8,8,0,0,0,442,488H413.31l-13.65-13.66a25.55,25.55,0,0,0-35.32,0,24.81,24.81,0,0,0-2.61,32.12L322,490.58V464a8,8,0,0,0-6.06-7.76l-18.66-4.66a24.32,24.32,0,0,0-9.6-25.79L199,353.88a7.85,7.85,0,0,0-5-1.88H34a8,8,0,0,0-7.76,6.06l-16,64A8,8,0,0,0,10,424a24,24,0,1,0,48,1.08h0L64.25,400H90V512H34a8,8,0,0,0-8,8v64a8,8,0,0,0,8,8H50a24,24,0,0,0,24-24v-8h78.4L178,617.7V648a8,8,0,0,0,8,8h64a8,8,0,0,0,8-8V632a24,24,0,0,0-24-24h-2.8l-35.7-80.3A7.89,7.89,0,0,0,202,520V417.31l56.94,48.48a8.26,8.26,0,0,0,.76.56A24.58,24.58,0,0,0,285,467.57a25.17,25.17,0,0,0,2.92-1.84L306,470.25V496a8,8,0,0,0,5,7.43L352.46,520H299.29l-26.79-8.94a23.2,23.2,0,0,0-14.65,44L290,565.76v24.7L274.57,629a7.5,7.5,0,0,0-.41,1.4,20.16,20.16,0,0,0,3.74,17.45A25.24,25.24,0,0,0,298,656c12.14,0,20.74-4.9,23.59-13.47L335.77,600h20.46l14.18,42.53C373.26,651.1,381.86,656,394,656a25.24,25.24,0,0,0,20.1-8.12,20.15,20.15,0,0,0,3.74-17.48,7.5,7.5,0,0,0-.41-1.4L402,590.46V560h64a24,24,0,0,0,0-48ZM58,568a8,8,0,0,1-8,8H42V528H58Zm80-200h16v8a8,8,0,0,1-16,0Zm-32,0h16v8a24,24,0,0,0,48,0v-8h16v96H106ZM58,384a8,8,0,0,0-7.76,6.06l-8,32A8,8,0,0,0,42,424a8,8,0,0,1-16,.8L40.25,368H90v16ZM74,544V528h64.14l7.11,16Zm64-48v16H106V480h80v32H154V496Zm96,128a8,8,0,0,1,8,8v8H194V624Zm-20.31-16H191.2l-35.6-80h22.5Zm63.75-154.54a8.5,8.5,0,0,1-8.54-.21L202,396.3V376.8l76.15,61.85a8.6,8.6,0,0,1,3.85,7.2A8.5,8.5,0,0,1,277.44,453.46Zm98.23,32.2a9,9,0,0,1,12.67,0h0l11.92,11.92-8.45,16.92-16.15-16.16a9,9,0,0,1,0-12.67h0Zm-112.8,54.21a7.2,7.2,0,0,1,2.25-14,7.43,7.43,0,0,1,2.29.38L290,533.77V548.9Zm43.5,97.6c-.48,1.44-4.1,2.53-8.41,2.53a10.31,10.31,0,0,1-7.72-2.26,4.47,4.47,0,0,1-.54-3.53L303.42,600H318.9ZM306,584V536h80v48Zm96.26,50.21a4.47,4.47,0,0,1-.54,3.53A10.31,10.31,0,0,1,394,640c-4.31,0-7.93-1.09-8.41-2.53L373.1,600h15.48ZM466,544H402V529.89L414.94,504h21.29l6.18,18.53A8,8,0,0,0,450,528h16a8,8,0,0,1,0,16Z"/></g><rect class="cls-5" width="490" height="416"/></g></g></svg>